<?xml version="1.0" encoding="utf-8"?>
<!-- Generator: Adobe Illustrator 26.3.1, SVG Export Plug-In . SVG Version: 6.00 Build 0)  -->
<svg version="1.1" id="Layer_1" xmlns="http://www.w3.org/2000/svg" xmlns:xlink="http://www.w3.org/1999/xlink" x="0px" y="0px"
	 viewBox="0 0 111 111" style="enable-background:new 0 0 111 111;" xml:space="preserve">
<path style="fill:#231F20;" d="M55.5-0.03C24.83-0.04-0.04,24.83-0.05,55.5c0,5.02,0.68,10.01,2.02,14.85
	c18-16.85,44.65-42.09,58-53.92c0.6,1.59,4.14,28,4.14,28c26.7,23.94,9.54,14.87,22.47,36.88c-11.63,9.38-21.51-5-38.32-3.1
	c-2.18,0.83-5.19,7.74-5.19,7.74s-14.29-13.71-31.54,3.42c18.72,24.27,53.57,28.77,77.84,10.04s28.77-53.57,10.04-77.84
	C88.91,7.96,72.69-0.02,55.5-0.03z"/>
</svg>
