<?xml version="1.0" encoding="utf-8"?>
<!-- Generator: Adobe Illustrator 26.3.1, SVG Export Plug-In . SVG Version: 6.00 Build 0)  -->
<svg version="1.1" id="Layer_1" xmlns="http://www.w3.org/2000/svg" xmlns:xlink="http://www.w3.org/1999/xlink" x="0px" y="0px"
	 viewBox="0 0 283.44 44.94" style="enable-background:new 0 0 283.44 44.94;" xml:space="preserve">
<g>
	<path style="fill:#231F20;" d="M1.61,28.11c-0.14,0.01-0.26-0.1-0.26-0.24c0-0.02,0-0.04,0-0.05L4.96,0.76
		c0.01-0.14,0.12-0.23,0.25-0.23h1.95c0.08,0,0.15,0.04,0.2,0.1s0.07,0.13,0.06,0.21L3.76,27.89c-0.02,0.13-0.14,0.22-0.26,0.22
		H1.61z"/>
	<path style="fill:#231F20;" d="M7.15,28.11c-0.14,0.01-0.26-0.1-0.26-0.23c0-0.02,0-0.04,0-0.07l2.48-18.5
		C9.38,9.18,9.5,9.08,9.63,9.08h1.9c0.14-0.01,0.26,0.1,0.26,0.23c0,0.02,0,0.04,0,0.07l-2.48,18.5c-0.02,0.13-0.14,0.22-0.26,0.22
		H7.15z M11.27,4.85c-0.26,0-0.52-0.05-0.76-0.16c-0.23-0.1-0.44-0.23-0.62-0.41C9.73,4.12,9.58,3.92,9.47,3.71
		c-0.22-0.47-0.22-1.02,0-1.48C9.6,2,9.76,1.79,9.95,1.62c0.19-0.18,0.39-0.32,0.63-0.42c0.49-0.2,1.03-0.2,1.51,0
		c0.23,0.1,0.45,0.23,0.63,0.4c0.19,0.18,0.34,0.38,0.45,0.62c0.12,0.23,0.18,0.49,0.18,0.75s-0.07,0.52-0.19,0.75
		c-0.12,0.21-0.27,0.41-0.46,0.58c-0.19,0.18-0.4,0.31-0.63,0.4C11.82,4.8,11.54,4.86,11.27,4.85z"/>
	<path style="fill:#231F20;" d="M25.67,28.11c-0.08,0-0.15-0.03-0.2-0.09c-0.05-0.06-0.07-0.13-0.06-0.21l1.53-11.83
		c0.27-1.31,0.15-2.67-0.36-3.91c-0.51-0.89-1.5-1.4-2.53-1.27c-0.76,0-1.51,0.18-2.2,0.51c-0.8,0.37-1.54,0.86-2.2,1.46
		c-0.76,0.69-1.44,1.48-2.02,2.32c-0.66,0.96-1.22,1.99-1.67,3.07l-1.24,9.77c-0.02,0.13-0.13,0.22-0.25,0.22h-1.95
		c-0.08,0-0.15-0.03-0.2-0.09c-0.05-0.06-0.08-0.13-0.07-0.21L14.7,9.3c0.02-0.14,0.13-0.23,0.26-0.23h0.88
		c0.48-0.06,0.92,0.28,0.98,0.77c0.01,0.07,0.01,0.14,0,0.21l-0.45,4.18c0.38-0.58,0.8-1.13,1.25-1.65
		c0.65-0.73,1.39-1.39,2.19-1.95c0.73-0.53,1.53-0.95,2.38-1.25c0.8-0.28,1.64-0.43,2.49-0.43c0.81-0.03,1.62,0.15,2.36,0.49
		c0.65,0.33,1.21,0.83,1.6,1.46c0.43,0.65,0.71,1.39,0.84,2.16c0.13,1.01,0.11,2.02-0.05,3.02l-1.57,11.83
		c-0.02,0.13-0.14,0.22-0.26,0.22L25.67,28.11z"/>
	<path style="fill:#231F20;" d="M43.51,28.11c-0.21,0.01-0.4-0.03-0.6-0.1c-0.21-0.1-0.37-0.25-0.49-0.45l-6.76-8.3
		c-0.11-0.17-0.25-0.3-0.43-0.39c-0.23-0.08-0.49-0.11-0.73-0.1h-0.51l-1.22,9.11c-0.02,0.13-0.14,0.22-0.26,0.22h-1.95
		c-0.08,0-0.16-0.03-0.21-0.09c-0.05-0.06-0.07-0.14-0.06-0.21l3.7-27.05c0.01-0.14,0.12-0.23,0.25-0.23h1.95
		c0.08,0,0.15,0.04,0.2,0.1c0.05,0.06,0.08,0.13,0.07,0.21l-2.24,16.2h0.48c0.17,0.01,0.33-0.02,0.49-0.07
		c0.17-0.07,0.31-0.18,0.44-0.29l8.51-7.05c0.16-0.16,0.33-0.28,0.53-0.38c0.22-0.11,0.47-0.16,0.71-0.15h1.66
		c0.11,0,0.21,0.07,0.24,0.18c0.04,0.11,0.01,0.22-0.08,0.29l-9.39,7.76l-0.41,0.35l-0.09,0.07l0.16,0.15
		c0.16,0.15,0.29,0.31,0.4,0.5l7.45,9.31c0.05,0.09,0.05,0.2,0,0.28c-0.05,0.09-0.14,0.15-0.23,0.15L43.51,28.11z"/>
	<path style="fill:#231F20;" d="M51.96,28.4c-1.17,0.04-2.34-0.19-3.42-0.64c-0.92-0.4-1.75-0.97-2.44-1.68
		c-0.09-0.1-0.09-0.24,0-0.34l0.5-0.63c0.18-0.24,0.46-0.39,0.76-0.4c0.27,0.03,0.52,0.17,0.69,0.37c0.25,0.23,0.52,0.45,0.8,0.63
		c0.41,0.26,0.86,0.47,1.32,0.63c0.65,0.21,1.34,0.3,2.02,0.28c0.72,0.01,1.44-0.1,2.12-0.32c0.6-0.22,1.14-0.56,1.62-0.98
		c0.43-0.39,0.78-0.85,1.04-1.38c0.23-0.52,0.36-1.07,0.36-1.64c0.01-0.44-0.11-0.87-0.34-1.23c-0.26-0.36-0.6-0.65-0.98-0.88
		c-0.44-0.26-0.92-0.49-1.41-0.65c-0.54-0.19-1.09-0.37-1.67-0.55c-0.58-0.18-1.14-0.38-1.69-0.61c-0.54-0.21-1.05-0.48-1.5-0.82
		c-0.46-0.31-0.84-0.73-1.11-1.21c-0.29-0.55-0.43-1.16-0.41-1.78c0-0.76,0.19-1.52,0.55-2.2c0.37-0.71,0.88-1.34,1.5-1.85
		c0.68-0.56,1.46-0.99,2.29-1.27c0.94-0.32,1.93-0.49,2.93-0.47c1.06-0.02,2.1,0.15,3.09,0.5c0.87,0.33,1.67,0.85,2.33,1.5
		c0.1,0.1,0.1,0.25,0,0.35l-0.47,0.62c-0.15,0.23-0.39,0.37-0.66,0.36c-0.24-0.02-0.48-0.13-0.66-0.29c-0.24-0.18-0.5-0.34-0.76-0.5
		c-0.39-0.21-0.79-0.37-1.21-0.5c-0.6-0.15-1.22-0.21-1.84-0.17c-0.64-0.01-1.29,0.1-1.9,0.3c-0.56,0.18-1.07,0.45-1.54,0.8
		c-0.4,0.31-0.73,0.71-0.98,1.15c-0.23,0.41-0.36,0.88-0.36,1.35c-0.02,0.4,0.1,0.79,0.33,1.12c0.26,0.34,0.6,0.63,0.98,0.83
		c0.45,0.26,0.93,0.47,1.42,0.63l1.66,0.56c0.58,0.19,1.14,0.4,1.7,0.63c0.54,0.22,1.05,0.52,1.51,0.86
		c0.45,0.34,0.83,0.77,1.1,1.26c0.29,0.56,0.44,1.18,0.42,1.82c-0.03,0.82-0.23,1.62-0.62,2.35c-0.38,0.79-0.91,1.49-1.56,2.07
		c-0.71,0.62-1.52,1.1-2.41,1.43C54.07,28.21,53.01,28.4,51.96,28.4z"/>
	<path style="fill:#231F20;" d="M78.13,28.4c-1.33,0.08-2.65-0.32-3.71-1.13c-0.95-0.82-1.48-2.02-1.46-3.28v-0.33
		c0-0.13,0-0.3,0-0.55c0-0.24,0-0.54,0.1-0.92c0.1-0.38,0.12-0.87,0.2-1.47l1.16-8.25h-1.69c-0.29,0.01-0.59-0.11-0.79-0.32
		c-0.24-0.26-0.32-0.63-0.22-0.98l0.22-1.82c0.01-0.12,0.1-0.21,0.21-0.22l3.04-0.42l1.64-5.08c0.2-0.61,0.76-1.01,1.4-0.98h2.71
		c0.08,0,0.16,0.04,0.21,0.1c0.05,0.06,0.07,0.13,0.06,0.21l-0.78,5.75h4.75c0.08,0,0.15,0.03,0.2,0.09
		c0.06,0.06,0.08,0.14,0.07,0.21L85,12.29c-0.02,0.13-0.14,0.22-0.26,0.22h-4.88l-1.31,9.95c-0.01,0.11-0.01,0.21,0,0.31v0.15
		c-0.03,0.34,0.09,0.67,0.31,0.93c0.22,0.23,0.55,0.36,0.88,0.33c0.22,0.01,0.44-0.02,0.65-0.09c0.18-0.06,0.34-0.13,0.51-0.21
		l0.39-0.21c0.15-0.09,0.31-0.13,0.48-0.14c0.19-0.01,0.37,0.05,0.52,0.17c0.13,0.11,0.22,0.24,0.29,0.39l1.09,2.24
		c0.05,0.12,0.01,0.25-0.09,0.32c-0.77,0.58-1.64,1.03-2.57,1.31C80.08,28.26,79.11,28.4,78.13,28.4z"/>
	<path style="fill:#231F20;" d="M91.14,28.39c-1.12,0.01-2.25-0.18-3.31-0.55c-2.01-0.69-3.63-2.23-4.43-4.21
		c-0.44-1.11-0.65-2.31-0.63-3.51c-0.01-1.61,0.3-3.21,0.91-4.71c0.58-1.41,1.42-2.69,2.47-3.78c1.04-1.05,2.26-1.9,3.6-2.51
		c1.39-0.61,2.88-0.92,4.4-0.91c1.12-0.01,2.25,0.17,3.31,0.54c2.02,0.68,3.63,2.23,4.42,4.21c0.44,1.11,0.65,2.31,0.63,3.51
		c0.03,3.15-1.17,6.18-3.34,8.47c-1.03,1.06-2.26,1.92-3.6,2.53C94.17,28.09,92.66,28.41,91.14,28.39z M93.66,12.27
		c-0.77-0.01-1.52,0.21-2.17,0.62c-0.67,0.44-1.24,1.02-1.67,1.69c-0.49,0.77-0.85,1.61-1.07,2.5c-0.25,1-0.38,2.01-0.38,3.04
		c-0.1,1.14,0.2,2.29,0.81,3.25c0.61,0.69,1.51,1.06,2.43,0.98c0.76,0.01,1.51-0.21,2.16-0.62c0.66-0.44,1.24-1.02,1.67-1.69
		c0.49-0.77,0.85-1.61,1.06-2.5c0.26-0.99,0.39-1.99,0.39-3.01c0.1-1.14-0.2-2.29-0.81-3.25C95.47,12.58,94.58,12.2,93.66,12.27z"/>
	<path style="fill:#231F20;" d="M119.48,34.78c-1.19,0.01-2.38-0.11-3.55-0.36c-0.96-0.21-1.88-0.57-2.73-1.05
		c-0.7-0.4-1.3-0.96-1.77-1.61c-0.42-0.62-0.63-1.35-0.63-2.09c-0.02-0.85,0.21-1.69,0.65-2.41c0.44-0.68,1.03-1.27,1.72-1.71
		c0.75-0.48,1.57-0.84,2.43-1.08c0.92-0.26,1.87-0.46,2.81-0.57c0.79-0.09,1.58-0.14,2.37-0.14h0.52c0.81,0,1.59,0.08,2.31,0.17
		c-0.06-0.29-0.09-0.59-0.09-0.89c0.01-0.62,0.14-1.22,0.37-1.79c-0.37,0.17-0.76,0.3-1.16,0.41c-0.8,0.19-1.63,0.27-2.45,0.26
		c-0.8,0.01-1.59-0.12-2.35-0.36c-0.72-0.24-1.38-0.63-1.95-1.13c-0.59-0.55-1.06-1.21-1.37-1.95c-0.35-0.84-0.52-1.74-0.5-2.65
		c0-0.98,0.21-1.93,0.6-2.82c0.41-0.94,1.01-1.78,1.76-2.47c0.85-0.74,1.83-1.31,2.89-1.68c1.25-0.45,2.58-0.66,3.91-0.64
		c0.77-0.01,1.53,0.08,2.29,0.24c0.68,0.16,1.34,0.4,1.95,0.73h5.86c0.08,0,0.15,0.04,0.2,0.1c0.05,0.06,0.07,0.14,0.06,0.21
		l-0.22,1.48c-0.09,0.65-0.55,1.2-1.18,1.4l-1.95,0.45c0.04,0.19,0.07,0.38,0.09,0.57c0.04,0.29,0.06,0.6,0.06,0.89
		c0.01,0.55-0.06,1.08-0.21,1.61c-0.14,0.45-0.31,0.88-0.53,1.3c-0.2,0.39-0.41,0.76-0.65,1.12c-0.23,0.33-0.44,0.67-0.63,0.98
		c-0.2,0.34-0.36,0.7-0.49,1.07c-0.13,0.39-0.2,0.79-0.19,1.2c-0.01,0.45,0.1,0.89,0.31,1.28c0.23,0.43,0.48,0.86,0.75,1.3
		c0.29,0.47,0.55,0.96,0.77,1.47c0.26,0.59,0.39,1.23,0.37,1.88c-0.01,0.99-0.26,1.95-0.74,2.81c-0.52,0.92-1.23,1.71-2.08,2.32
		c-1,0.7-2.1,1.23-3.27,1.55C122.41,34.59,120.94,34.79,119.48,34.78z M120.79,26.88c-0.93,0.01-1.85,0.14-2.74,0.38
		c-0.56,0.15-1.06,0.43-1.48,0.82c-0.27,0.25-0.43,0.61-0.45,0.98c-0.02,0.62,0.32,1.18,0.87,1.47c0.92,0.42,1.92,0.61,2.93,0.54
		c0.68,0.01,1.36-0.08,2.02-0.25c0.55-0.15,1.06-0.37,1.54-0.68c0.39-0.25,0.72-0.59,0.98-0.98c0.21-0.37,0.33-0.79,0.33-1.22
		c0.01-0.16,0.01-0.32,0-0.48c0-0.1,0-0.19,0-0.27c-1.14-0.19-2.3-0.28-3.46-0.29C121.34,26.88,120.79,26.88,120.79,26.88z
		 M122.69,11.84c-1.01-0.02-1.96,0.44-2.58,1.23c-0.3,0.39-0.53,0.83-0.66,1.3c-0.15,0.5-0.22,1.02-0.22,1.54
		c-0.05,0.73,0.19,1.47,0.65,2.03c0.49,0.49,1.16,0.74,1.86,0.69c0.54,0.02,1.06-0.1,1.53-0.35c0.43-0.24,0.81-0.58,1.1-0.98
		c0.3-0.4,0.54-0.86,0.68-1.34c0.16-0.5,0.24-1.02,0.25-1.53c0.05-0.71-0.19-1.42-0.65-1.95C124.12,12,123.4,11.77,122.69,11.84z"/>
	<path style="fill:#231F20;" d="M139.38,28.39c-1.17,0.02-2.33-0.19-3.44-0.59c-0.99-0.36-1.9-0.93-2.66-1.66
		c-0.75-0.72-1.33-1.6-1.71-2.58c-0.41-1.07-0.63-2.21-0.61-3.36c-0.01-2.04,0.48-4.05,1.43-5.86c0.46-0.89,1.04-1.71,1.7-2.45
		c0.66-0.75,1.44-1.41,2.28-1.95c0.87-0.54,1.82-0.96,2.8-1.23c1.05-0.31,2.16-0.47,3.26-0.46c1-0.01,1.98,0.15,2.93,0.45
		c0.78,0.25,1.5,0.63,2.15,1.14c0.55,0.43,1,0.99,1.31,1.61c0.28,0.54,0.43,1.14,0.44,1.75c0.01,0.86-0.2,1.71-0.6,2.47
		c-0.51,0.84-1.24,1.51-2.11,1.95c-1.26,0.67-2.62,1.17-4.01,1.48c-2.03,0.47-4.09,0.79-6.16,0.98l0,0c0,2.85,1.29,4.24,3.91,4.24
		c0.52,0.01,1.04-0.04,1.54-0.15c0.4-0.09,0.79-0.21,1.17-0.37c0.31-0.14,0.62-0.29,0.9-0.48c0.28-0.19,0.55-0.36,0.79-0.51
		c0.23-0.15,0.48-0.28,0.73-0.4c0.27-0.12,0.57-0.18,0.87-0.18c0.21,0,0.41,0.05,0.6,0.14c0.19,0.09,0.35,0.21,0.5,0.35l1.3,1.42
		c0.05,0.05,0.07,0.13,0.07,0.2c-0.01,0.07-0.04,0.13-0.09,0.18c-0.65,0.63-1.35,1.23-2.08,1.78c-0.68,0.48-1.42,0.88-2.19,1.21
		c-0.75,0.32-1.53,0.57-2.34,0.7C141.17,28.36,140.28,28.41,139.38,28.39z M142.15,11.97c-0.62-0.01-1.23,0.12-1.8,0.36
		c-0.56,0.22-1.07,0.56-1.51,0.98c-0.48,0.46-0.87,1-1.18,1.58c-0.28,0.53-0.52,1.07-0.69,1.65c1.23-0.15,2.45-0.36,3.66-0.64
		c0.8-0.18,1.59-0.44,2.33-0.79c0.4-0.19,0.73-0.48,0.98-0.84c0.17-0.3,0.24-0.63,0.24-0.98c0-0.17-0.05-0.32-0.12-0.47
		c-0.08-0.17-0.2-0.31-0.33-0.43c-0.2-0.16-0.41-0.27-0.64-0.35C142.78,11.97,142.46,11.94,142.15,11.97z"/>
	<path style="fill:#231F20;" d="M156.48,28.4c-1.34,0.07-2.66-0.33-3.71-1.15c-0.95-0.82-1.48-2.02-1.46-3.28v-0.31
		c0-0.13,0-0.3,0-0.55c0-0.24,0.06-0.54,0.11-0.92c0.05-0.38,0.11-0.87,0.2-1.47l1.12-8.25h-1.69c-0.54,0.03-1-0.39-1.03-0.93
		c-0.01-0.12,0.01-0.23,0.05-0.34l0.22-1.82c0.02-0.12,0.11-0.21,0.22-0.22l3.03-0.45l1.63-5.05c0.2-0.61,0.76-1.01,1.4-0.98h2.72
		c0.08,0,0.15,0.04,0.2,0.1s0.08,0.13,0.07,0.21l-0.78,5.7h4.79c0.08,0,0.15,0.04,0.2,0.09c0.05,0.06,0.07,0.14,0.06,0.21l-0.5,3.25
		c-0.02,0.14-0.13,0.23-0.26,0.22h-4.88l-1.36,9.99c0,0.15,0,0.25,0,0.31v0.15c-0.02,0.33,0.09,0.67,0.3,0.93
		c0.23,0.23,0.56,0.36,0.89,0.33c0.22,0.01,0.44-0.03,0.65-0.09l0.5-0.21l0.4-0.21c0.15-0.09,0.31-0.14,0.48-0.14
		c0.19-0.01,0.36,0.05,0.51,0.17c0.13,0.11,0.23,0.23,0.29,0.39l1.09,2.24c0.05,0.12,0.02,0.24-0.08,0.32
		c-0.78,0.58-1.65,1.02-2.57,1.31C158.37,28.25,157.43,28.39,156.48,28.4z"/>
	<path style="fill:#231F20;" d="M196.53,28.11c-0.08,0-0.15-0.03-0.2-0.09c-0.05-0.06-0.08-0.13-0.07-0.21l1.58-12.14
		c0.19-0.84,0.16-1.71-0.09-2.53c-0.25-0.47-0.76-0.73-1.29-0.65c-0.49,0-0.97,0.12-1.4,0.34c-0.5,0.24-0.96,0.58-1.34,0.98
		c-0.44,0.53-0.82,1.11-1.11,1.74c-0.39,0.72-0.72,1.48-0.98,2.26l-1.3,10.09c-0.02,0.13-0.14,0.22-0.26,0.22h-5
		c-0.14,0.01-0.26-0.1-0.26-0.24c0-0.02,0-0.04,0-0.05l1.6-12.14c0.18-0.84,0.15-1.71-0.09-2.53c-0.23-0.47-0.75-0.73-1.27-0.65
		c-0.51,0-1,0.13-1.45,0.36c-0.51,0.27-0.97,0.63-1.35,1.06c-0.47,0.53-0.87,1.11-1.19,1.74c-0.39,0.74-0.72,1.51-0.98,2.31
		l-1.31,9.92c-0.02,0.13-0.13,0.22-0.25,0.22h-4.97c-0.08,0-0.15-0.03-0.2-0.09s-0.07-0.13-0.06-0.21l2.49-19.12
		c0.02-0.14,0.13-0.23,0.26-0.23h2.58c0.5-0.03,1,0.12,1.41,0.41c0.38,0.33,0.59,0.83,0.55,1.34l-0.07,1.28
		c0.73-0.93,1.63-1.71,2.65-2.32c1.09-0.63,2.33-0.98,3.59-0.98c1.21-0.06,2.39,0.4,3.25,1.25c0.7,0.79,1.15,1.77,1.29,2.82
		c0.77-1.16,1.77-2.16,2.93-2.93c1.22-0.75,2.62-1.15,4.05-1.14c0.85-0.02,1.68,0.16,2.45,0.51c0.69,0.33,1.3,0.85,1.74,1.48
		c0.48,0.71,0.79,1.53,0.91,2.38c0.16,1.05,0.16,2.11,0,3.16l-1.58,12.14c-0.02,0.13-0.13,0.22-0.25,0.22
		C201.56,28.11,196.53,28.11,196.53,28.11z"/>
	<path style="fill:#231F20;" d="M213.03,28.39c-1.12,0.01-2.25-0.18-3.31-0.55c-2-0.7-3.6-2.24-4.4-4.21
		c-0.44-1.11-0.64-2.31-0.63-3.51c-0.01-1.61,0.29-3.21,0.9-4.71c0.57-1.41,1.4-2.7,2.44-3.79c1.04-1.05,2.26-1.9,3.6-2.51
		c1.39-0.61,2.88-0.92,4.4-0.91c1.13-0.01,2.26,0.17,3.32,0.54c0.99,0.35,1.9,0.9,2.66,1.61c0.76,0.73,1.36,1.62,1.75,2.6
		c0.44,1.11,0.65,2.31,0.63,3.51c0.01,1.6-0.29,3.2-0.9,4.69c-0.57,1.4-1.4,2.69-2.44,3.78c-1.03,1.06-2.26,1.92-3.6,2.53
		C216.07,28.09,214.55,28.4,213.03,28.39z M215.56,12.27c-0.77-0.01-1.52,0.21-2.17,0.62c-0.67,0.44-1.25,1.02-1.68,1.69
		c-0.49,0.77-0.85,1.61-1.07,2.5c-0.25,1-0.38,2.01-0.38,3.04c-0.1,1.14,0.2,2.29,0.81,3.25c0.62,0.69,1.52,1.05,2.44,0.98
		c0.76,0.01,1.5-0.21,2.15-0.62c0.67-0.44,1.24-1.02,1.67-1.69c0.49-0.77,0.85-1.61,1.06-2.5c0.26-0.99,0.39-2,0.39-3.02
		c0.1-1.14-0.2-2.29-0.81-3.25C217.37,12.56,216.48,12.19,215.56,12.27z"/>
	<path style="fill:#231F20;" d="M225.11,28.11c-0.08,0-0.16-0.03-0.21-0.09c-0.05-0.06-0.07-0.13-0.06-0.21l2.54-19.11
		c0.02-0.14,0.13-0.23,0.26-0.23h2.59c0.5-0.03,1,0.12,1.41,0.41c0.37,0.34,0.58,0.83,0.54,1.34l-0.1,2.09
		c0.36-0.56,0.77-1.08,1.21-1.58c0.56-0.64,1.22-1.19,1.95-1.63c0.64-0.39,1.38-0.63,2.13-0.7h0.45c0.61,0,1.21,0.13,1.77,0.35
		c0.12,0.05,0.19,0.18,0.17,0.3l-0.98,4.39c-0.01,0.08-0.06,0.14-0.13,0.18c-0.04,0.01-0.09,0.01-0.13,0c-0.03,0.01-0.07,0.01-0.1,0
		c-0.58-0.22-1.19-0.35-1.82-0.36c-0.84,0.01-1.65,0.28-2.32,0.79c-1.19,0.91-2.17,2.73-2.93,5.42l-1.12,8.43
		c-0.02,0.13-0.14,0.22-0.26,0.22L225.11,28.11z"/>
	<path style="fill:#231F20;" d="M246.11,28.39c-1.17,0.02-2.33-0.19-3.44-0.59c-0.99-0.36-1.9-0.93-2.66-1.66
		c-0.75-0.72-1.33-1.6-1.71-2.58c-0.41-1.07-0.62-2.21-0.61-3.36c-0.01-2.04,0.48-4.05,1.43-5.86c0.46-0.89,1.03-1.71,1.7-2.45
		c1.36-1.52,3.12-2.64,5.07-3.22c1.06-0.31,2.17-0.47,3.27-0.46c1-0.01,1.98,0.15,2.93,0.45c0.78,0.25,1.5,0.63,2.15,1.14
		c0.55,0.43,1,0.99,1.31,1.61c0.28,0.54,0.43,1.14,0.44,1.75c0.01,0.86-0.2,1.71-0.6,2.47c-0.51,0.84-1.24,1.51-2.11,1.95
		c-1.26,0.7-2.61,1.22-4.01,1.54c-2.03,0.47-4.09,0.79-6.16,0.98l0,0c0,2.85,1.29,4.24,3.91,4.24c0.52,0.01,1.04-0.04,1.54-0.15
		c0.4-0.09,0.79-0.21,1.17-0.37c0.31-0.14,0.62-0.29,0.9-0.48c0.28-0.19,0.55-0.36,0.79-0.51c0.25-0.17,0.51-0.32,0.78-0.46
		c0.27-0.12,0.57-0.18,0.87-0.18c0.21,0,0.41,0.05,0.6,0.14c0.19,0.09,0.35,0.21,0.5,0.35l1.3,1.42c0.05,0.05,0.07,0.13,0.07,0.2
		c-0.01,0.07-0.04,0.13-0.09,0.18c-0.67,0.64-1.38,1.25-2.13,1.81c-0.68,0.48-1.42,0.88-2.19,1.21c-0.75,0.32-1.53,0.57-2.34,0.7
		C247.9,28.36,247.01,28.41,246.11,28.39z M248.88,11.97c-0.62-0.01-1.23,0.12-1.8,0.36c-0.56,0.22-1.07,0.56-1.51,0.98
		c-0.47,0.48-0.87,1.03-1.17,1.62c-0.28,0.53-0.52,1.07-0.69,1.65c1.22-0.15,2.43-0.36,3.62-0.64c0.8-0.18,1.59-0.44,2.33-0.79
		c0.4-0.19,0.73-0.48,0.98-0.84c0.17-0.3,0.24-0.63,0.24-0.98c0-0.17-0.05-0.32-0.12-0.47c-0.08-0.17-0.2-0.31-0.33-0.43
		c-0.2-0.16-0.41-0.27-0.64-0.35C249.49,12,249.18,11.96,248.88,11.97z"/>
	<path style="fill:#231F20;" d="M268.62,17.77c-7.38,0.02-13.34,6.01-13.32,13.38c0,1.19,0.17,2.37,0.48,3.52
		c4.32-4.04,10.75-10.11,13.91-12.95c0.15,0.38,0.98,6.72,0.98,6.72c6.41,5.75,2.3,3.58,5.4,8.86c-2.79,2.26-5.17-1.21-9.21-0.74
		c-0.52,0.2-1.24,1.86-1.24,1.86s-3.42-3.29-7.57,0.83c4.5,5.82,12.87,6.9,18.71,2.39c5.82-4.5,6.9-12.87,2.39-18.71
		c-2.52-3.26-6.41-5.18-10.54-5.18L268.62,17.77z"/>
</g>
</svg>
