<?xml version="1.0" encoding="utf-8"?>
<!-- Generator: Adobe Illustrator 26.3.1, SVG Export Plug-In . SVG Version: 6.00 Build 0)  -->
<svg version="1.1" id="logo-getfox" xmlns="http://www.w3.org/2000/svg" xmlns:xlink="http://www.w3.org/1999/xlink" x="0px"
	 y="0px" viewBox="0 0 311.97 192.21" style="enable-background:new 0 0 311.97 192.21;" xml:space="preserve">
<path style="fill:#231F20;" d="M297.77,68.53c0,0-2.24-16.64-2.62-17.64c-12,10.66-41.06,38.53-47.06,43.73
	c-8-18.09-8-18.09-11.72-28.54c-1.51-4.12-14.77-0.7-8.7,14c6.32,15.3,12.12,34-9.13,35.16c7.86-30-20-45-34-11.64
	c-6.66-0.79-13.41-0.54-20,0.74c10.45-20.93,22.19-61.79,41.75-31.53c2.85-3.38,11.15-4.53,6.28-14.11
	c-10.53-20.67-30.93-11-37.91-3.83C154.27,80.65,160.2,97,134.52,108.78c-1-23.3,19.62-55.59,30.58-76.1c3.08,0,24.92-0.18,42.67,0
	c8.52-0.43,37.28,2.88,24.24-7.45c-6.37-5.05-40.84-5.77-60.42-5.32c12.58-30-5.37-23.17-15,0.87c-18-0.17-49.44,3.12-59.37,9.22
	c-25,15.33,42,1.2,53,3.35c-9.89,20.13-17.36,40.5-28,56.49c-10,15-27.95,29.63-38.15,17.33c55.23-23.11,39.33-78.12-27.6-10
	c1.65-11.48,4.23-21.42,6.25-31.15C57.99,51.2,51.11,55.2,47.19,71.29c-3.14-4.25-7-5-12.86-4.66c-55.13,14.39-38,102.46,10,26.53
	c-1.74,27.4-49.26,58.3-43.78,90.16c1.83,10.58,13.76,11.4,21.28,4.11c24.35-23.61,16.88-66.64,47.52-87
	c1.9,36.63,36.44,22.21,54.42,4.47c-3.53,18.89,0.72,29,18,18.2c-7.21,17.48-15.53,44.16-0.35,46.75c4-8.68,4.75-20.18,9.22-32.7
	c7.86-22,26.69-30.22,29.66-20c2.69,9.23,0.31,14.53,4.91,21.39c12.26,18.32,27.32-13.57,40.33-13.7
	c-11.13,12.54-14.86,26.58-2.23,30.35c7.88-19,11.81-26.8,21.45-36.84c1.9,5,7.87,9.29,13.79,12
	c-30.51,37.63,27.2,18.11,33.16,14.84c3.44-0.15-44.86,0.35-30.33-5.35c7.39-2.36,10.15-5.29,11-7.19l0,0
	c0.58-1.42-2.05-4.53-10.29-9.82c-9.1-7.05-5.94-15.59,1.29-24.69c11.39-12.58,21-3.33,21-3.33s1.91-4.37,3.28-4.89
	c10.62-1.23,16.87,7.88,24.22,2C303.8,77.89,314.64,83.66,297.77,68.53z M26.83,97.13c-35.94,37.53-6.69-22.66,10.95-15.38
	C37.96,84.22,34.31,89.35,26.83,97.13z M37.17,129.18c-19.84,68.61-41.07,54.78,0-0.11V129.18z M82.47,97.36
	c-2.81-4.78,11.26-17,15.31-19C118.33,68.62,85.11,99.52,82.47,97.36z M203.38,126.17c-22.51,33-0.33-52.41,4.78-23.66
	C209.22,108.48,208.53,118.63,203.38,126.17z"/>
</svg>
